<svg width="56" height="56" viewBox="0 0 56 56" fill="none" xmlns="http://www.w3.org/2000/svg">
<path d="M50 30C51.1046 30 52 29.1046 52 28C52 26.8954 51.1046 26 50 26V30ZM4.58579 26.5858C3.80474 27.3668 3.80474 28.6332 4.58579 29.4142L17.3137 42.1421C18.0948 42.9232 19.3611 42.9232 20.1421 42.1421C20.9232 41.3611 20.9232 40.0948 20.1421 39.3137L8.82843 28L20.1421 16.6863C20.9232 15.9052 20.9232 14.6389 20.1421 13.8579C19.3611 13.0768 18.0948 13.0768 17.3137 13.8579L4.58579 26.5858ZM50 26H6V30H50V26Z" fill="white"/>
</svg>
