<svg width="1245" height="403" viewBox="0 0 1245 403" fill="none" xmlns="http://www.w3.org/2000/svg">
<mask id="path-1-inside-1_347_2198" fill="white">
<path fill-rule="evenodd" clip-rule="evenodd" d="M138.807 38.8076H38.8066V138.808H138.807V38.8076ZM353.807 38.8076V138.808H287.653L138.807 363.808H38.8066L253.807 38.8076H353.807ZM253.807 263.808H353.807V363.808H253.807V263.808Z"/>
</mask>
<path fill-rule="evenodd" clip-rule="evenodd" d="M138.807 38.8076H38.8066V138.808H138.807V38.8076ZM353.807 38.8076V138.808H287.653L138.807 363.808H38.8066L253.807 38.8076H353.807ZM253.807 263.808H353.807V363.808H253.807V263.808Z" fill="url(#paint0_linear_347_2198)"/>
<path d="M38.8066 38.8076V34.8076H34.8066V38.8076H38.8066ZM138.807 38.8076H142.807V34.8076H138.807V38.8076ZM38.8066 138.808H34.8066V142.808H38.8066V138.808ZM138.807 138.808V142.808H142.807V138.808H138.807ZM353.807 38.8076H357.807V34.8076H353.807V38.8076ZM353.807 138.808V142.808H357.807V138.808H353.807ZM287.653 138.808V134.808H285.503L284.317 136.601L287.653 138.808ZM138.807 363.808V367.808H140.957L142.143 366.015L138.807 363.808ZM38.8066 363.808L35.4706 361.601L31.3644 367.808H38.8066V363.808ZM253.807 38.8076V34.8076H251.657L250.471 36.6007L253.807 38.8076ZM353.807 263.808H357.807V259.808H353.807V263.808ZM253.807 263.808V259.808H249.807V263.808H253.807ZM353.807 363.808V367.808H357.807V363.808H353.807ZM253.807 363.808H249.807V367.808H253.807V363.808ZM38.8066 42.8076H138.807V34.8076H38.8066V42.8076ZM42.8066 138.808V38.8076H34.8066V138.808H42.8066ZM138.807 134.808H38.8066V142.808H138.807V134.808ZM134.807 38.8076V138.808H142.807V38.8076H134.807ZM349.807 38.8076V138.808H357.807V38.8076H349.807ZM353.807 134.808H287.653V142.808H353.807V134.808ZM284.317 136.601L135.471 361.601L142.143 366.015L290.989 141.015L284.317 136.601ZM138.807 359.808H38.8066V367.808H138.807V359.808ZM42.1427 366.015L257.143 41.0146L250.471 36.6007L35.4706 361.601L42.1427 366.015ZM253.807 42.8076H353.807V34.8076H253.807V42.8076ZM353.807 259.808H253.807V267.808H353.807V259.808ZM357.807 363.808V263.808H349.807V363.808H357.807ZM253.807 367.808H353.807V359.808H253.807V367.808ZM249.807 263.808V363.808H257.807V263.808H249.807Z" fill="url(#paint1_linear_347_2198)" mask="url(#path-1-inside-1_347_2198)"/>
<path d="M1206.12 281.31H1168.45V118.515H1206.12V281.31Z" fill="#012010"/>
<path d="M1097.8 169.679L1052.22 281.31H1025.24L980.824 168.749V281.31H943.148V118.515H997.568L1039.2 226.89L1082.45 118.515H1135.48V281.31H1097.8V169.679Z" fill="#012010"/>
<path d="M915.222 281.31H808.242V118.515H915.222V149.678H845.918V182.005H915.222V213.168H845.918V250.146H915.222V281.31Z" fill="#012010"/>
<path d="M777.062 281.31H745.433L742.177 265.263C731.711 279.217 716.827 284.101 704.036 284.101C691.943 284.101 680.082 277.589 671.942 267.589C661.71 254.565 660.779 238.751 660.779 221.308V156.655H698.455V219.913C698.455 228.053 698.455 237.588 701.246 243.867C704.036 250.146 709.85 252.472 716.13 252.472C724.269 252.472 734.27 248.053 739.386 239.448V156.655H777.062V281.31Z" fill="#012010"/>
<path d="M604.998 156.655L608.254 171.539C615.231 160.841 624.533 153.865 636.394 153.865C642.673 153.865 648.72 155.26 653.139 157.12L643.836 188.284C640.348 186.424 636.162 185.493 631.976 185.493C623.603 185.493 614.998 190.145 610.812 196.889V281.31H573.137V156.655H604.998Z" fill="#012010"/>
<path d="M566.833 149.678H529.158V281.31H491.482V149.678H453.807V118.515H566.833V149.678Z" fill="#012010"/>
<defs>
<linearGradient id="paint0_linear_347_2198" x1="16.8724" y1="38.8076" x2="320.249" y2="392.585" gradientUnits="userSpaceOnUse">
<stop stop-color="#01C95E"/>
<stop offset="1" stop-color="#009E49"/>
</linearGradient>
<linearGradient id="paint1_linear_347_2198" x1="38.8066" y1="45.4572" x2="312.564" y2="389.588" gradientUnits="userSpaceOnUse">
<stop stop-color="#53F699"/>
<stop offset="1" stop-color="#009510"/>
</linearGradient>
</defs>
</svg>
