<svg width="64" height="64" viewBox="0 0 64 64" fill="none" xmlns="http://www.w3.org/2000/svg">
<path d="M47 22H34V40.125C34 40.6555 33.7893 41.1642 33.4142 41.5393C33.0391 41.9143 32.5304 42.125 32 42.125C31.4696 42.125 30.9609 41.9143 30.5858 41.5393C30.2107 41.1642 30 40.6555 30 40.125V22H17C15.1441 22.002 13.3648 22.7402 12.0524 24.0525C10.7401 25.3648 10.002 27.1441 10 29V53C10.002 54.856 10.7401 56.6353 12.0524 57.9476C13.3648 59.2599 15.1441 59.9981 17 60H47C48.8559 59.9981 50.6352 59.2599 51.9476 57.9476C53.2599 56.6353 53.998 54.856 54 53V29C53.998 27.1441 53.2599 25.3648 51.9476 24.0525C50.6352 22.7402 48.8559 22.002 47 22ZM34 10.8288L40.5863 17.4138C40.9644 17.773 41.4679 17.9704 41.9894 17.9637C42.5109 17.957 43.0092 17.7469 43.378 17.3781C43.7468 17.0093 43.957 16.511 43.9636 15.9894C43.9703 15.4679 43.773 14.9644 43.4137 14.5863L33.4137 4.5863C33.0387 4.21151 32.5302 4.00098 32 4.00098C31.4698 4.00098 30.9613 4.21151 30.5863 4.5863L20.5863 14.5863C20.227 14.9644 20.0297 15.4679 20.0364 15.9894C20.043 16.511 20.2532 17.0093 20.622 17.3781C20.9908 17.7469 21.4891 17.957 22.0106 17.9637C22.5321 17.9704 23.0356 17.773 23.4137 17.4138L30 10.8288V22H34V10.8288Z" fill="#05A14B"/>
</svg>
